<svg xmlns="http://www.w3.org/2000/svg" width="94.182" height="48.021" viewBox="0 0 94.182 48.021">
  <path id="Path_190" data-name="Path 190" d="M575.444,46.231a58.224,58.224,0,0,0-93.452,0q-.215.3-.366.523c.1.152.223.325.366.528a58.227,58.227,0,0,0,93.452,0c.147-.2.267-.377.364-.528-.1-.148-.217-.322-.364-.523M512.99,34.622c.254-.373,1.1-1.438,1.2-1.573a1.5,1.5,0,0,1,.951-.39c.3-.058.7.111.746.336a2.617,2.617,0,0,1-.263,1.249,3.257,3.257,0,0,1-2.083.94c-.459-.07-.639-.426-.552-.561m-1.007,2c.045-.053.085-.1.1-.119a2.629,2.629,0,0,1,1.549-.567c.489-.084,1.141.163,1.22.488s-1.226.917-1.465,1.139c-.679.625-1.74,1.9-2.362,2.035a.743.743,0,0,1-.508-.053,19.436,19.436,0,0,1,1.464-2.923m10.554,21.652a5.59,5.59,0,0,1-1.208,2.517,4.072,4.072,0,0,1-2.678,1.025c-.894-.067-1.018-2.452-1.018-3.678,0-.424-.6.832-.912-1.72-.2-1.634-1.249.171-1.323-.92s-.6-.87-1.151-1.551-1.231.066-2,.41-.448.517-1.532.176c-.028-.009-.042-.017-.069-.027a19.576,19.576,0,0,1-1.544-7.646c0-.663.036-1.316.1-1.961a1.2,1.2,0,0,1,.121-.182c1.039-1.23,1.016-1.517,1.016-1.517l1.149-.4a19.241,19.241,0,0,1,3.218.8c1.139.427,2.932,1.393,3.975.968.754-.311,1.344-.723,1.273-1.351-.085-.787-.705-.975-1.456-.444-.277.2-.867-1.187-1.33-1.117s.572,1.624.18,1.69-1.185-1.622-1.321-1.9-.744-.95-1.292-.432c-1.158,1.1-3.041,1.034-3.418,1.317-1.15.861-1.454-.283-1.428-.98.046-.159.093-.32.144-.477a2.352,2.352,0,0,1,2.186-.242c.509.34.873-.087,1.072-.293a.707.707,0,0,0,0-.8c-.129-.273.254-.473.517-.543a13.767,13.767,0,0,0,1.49-.887,4.9,4.9,0,0,1,2.983-.016,1.58,1.58,0,0,0,1.961-.4,5.274,5.274,0,0,1,1.424-1.187c.285-.133-.7-1.053-1.511-.05s-1.226,1.09-1.608,1.09S515.9,37,515.623,36.28s.709-1.252,1.547-1.658,3.127-.394,3.712-.526c1.191-.261,2.713-.859,3.479-.337s-3.2,1.416-1.9,2.119c.463.255,2.559-1.206,3.278-1.579,1.689-.871-1.638-1.159-1.207-2.931.488-2-4.082-1.228-6.36-1.057a19.64,19.64,0,0,1,29.682,11.958,3.231,3.231,0,0,1-.1.909,1.284,1.284,0,0,1-2.3.177c-.2-.288-1.042-1.083-1.013.278s1.323,1.5.067,2.318a4.839,4.839,0,0,1-2.065.826,2.66,2.66,0,0,0-1,2.358c.141.75,1.931,2.8.6,2.713A7.678,7.678,0,0,1,539,49.191c-.409-1.085-.855-2.147-1.172-2.966a1.172,1.172,0,0,0-1.851-.544c-.7.478.2.956-.308,1.979s-.86,1.934-1.6,1.09c-1.917-2.2-4.7-1.113-5.141-3.559-.235-1.326-1.378-1.2-2.331-1.949s-1.494-1.153-1.655-.612c-.142.474,3,2.968,3.227,3.607.334.948-.942,1.786-1.876,2.011s-1.339-.523-2.255-1.477-1.316-1.633-1.379-.885a4.3,4.3,0,0,0,1.8,3.262c.795.5,1.685.732,1.428,1.549s0,.356-.9,1.237a2.4,2.4,0,0,0-1,2.393c.064,1.227-.255,1.3-.447,2.317s-.634.138-1.019,1.634m21.074-7.834c.661-.053,1.653.862,1.265,1.213A1.758,1.758,0,0,1,543,51.488c-.494-.385.312-1.021.609-1.045m-.835-.6c-.212-.079-.4-.28-.559-.762a.442.442,0,0,1,.642-.564,1.9,1.9,0,0,1,.926,1.128c0,.322-.793.283-1.009.2M534.1,49.8a1.773,1.773,0,0,1-1.878-.169c-.494-.384.314-1.022.609-1.045.661-.059,1.654.864,1.269,1.214m-8.023,3.9c-.271.442-1.009,3.747-1.5,3.362s.2-3.832.344-4.094c.776-1.424,2.454-1.353,1.16.732m2.671,12.8a19.658,19.658,0,0,1-5.522-.791.81.81,0,0,1-.238-.96c.608-1.585,2.418-2.205,3.847-2.343,3.186-.311,7.373,2.068,8.039,1.684s2.015-2.134,3.991-2.061a3.094,3.094,0,0,1,1.792.449,19.566,19.566,0,0,1-11.908,4.022m13.855-5.719a3.381,3.381,0,0,1-.617-.228c-1.072-.546-.944.326-1.471.134s.595-1.42-.989-.386-1.151-.159-1.839-1.907.792-3.747,2.033-4.2a24.872,24.872,0,0,1,3.567-.941c2.36-.589,2.859-1.99,3.287-1.138.081.16.159.311.23.454a3.1,3.1,0,0,1,.3,1.28,19.668,19.668,0,0,1-4.5,6.93m5.381-9.918c-.527-.144-2.733-3.193-.989-5.2.29-.33-.585-1.3-.346-1.32a1.6,1.6,0,0,1,1.712,1.372c.019.376.034.755.034,1.139a19.826,19.826,0,0,1-.411,4.01" transform="translate(-481.626 -22.745)" fill="#558085"/>
</svg>
