<svg xmlns="http://www.w3.org/2000/svg" width="48.221" height="66.283" viewBox="0 0 48.221 66.283">
  <g id="Group_63" data-name="Group 63" transform="translate(-257.898 -1512.184)">
    <path id="Path_160" data-name="Path 160" d="M517.925,642.091a.57.57,0,0,0-.426-.187H470.384a.534.534,0,0,0-.542.633l7.915,47.874a.553.553,0,0,0,.543.462h9.715l.664,7.8-4.088.005,9.513,9.512,9.535-9.534-4.087,0,.663-7.785H510.1a.544.544,0,0,0,.541-.47l7.406-47.866a.561.561,0,0,0-.124-.446m-18.209,38.327a9.049,9.049,0,0,1-11.25,0c-3.53-3.526-2.27-7.914-1.042-10.181.759-1.42,6.182-9.565,6.648-10.257v-.056a.337.337,0,0,0,.021.027l.019-.027v.056c.455.692,5.886,8.836,6.645,10.257,1.23,2.267,2.485,6.654-1.041,10.181m14.946-28.255a5.85,5.85,0,0,0-4.45.271c-5.846,2.369-9.824,3.222-15.973,1.3-3.872-1.211-7.495-3.75-11.778-2.2-2.842,1.022-5.49,2-8.7,1.972l-1.856-9.515H516Z" transform="translate(-211.937 870.28)" fill="#558085"/>
  </g>
</svg>
