<svg xmlns="http://www.w3.org/2000/svg" width="88.125" height="86.273" viewBox="0 0 88.125 86.273">
  <path id="Path_200" data-name="Path 200" d="M597.475,353.621a23.145,23.145,0,0,0-22.268-23.1,23.115,23.115,0,0,0-43.593,0,23.1,23.1,0,0,0-13.343,41.322,23.1,23.1,0,0,0,35.253,25.483,23.1,23.1,0,0,0,35.066-25.509,23.091,23.091,0,0,0,8.885-18.2m-25.6-15.4a18.473,18.473,0,0,1-15.74,18.239,18.3,18.3,0,0,1,15.5-21.076,18.38,18.38,0,0,1,.241,2.837M553.5,391.332a18.409,18.409,0,0,1-.17-26.3,18.409,18.409,0,0,1,.17,26.3M535.19,335.38a18.285,18.285,0,0,1,15.5,21.077,18.3,18.3,0,0,1-15.5-21.077m13.766,26.5A18.392,18.392,0,0,1,523.986,370a18.393,18.393,0,0,1,24.97-8.122m8.852-.124a18.4,18.4,0,0,1,25.092,8.218,18.4,18.4,0,0,1-25.092-8.218m-4.4-42a18.483,18.483,0,0,1,16.925,11.1,23.193,23.193,0,0,0-16.925,12.99,23.177,23.177,0,0,0-16.922-12.99,18.483,18.483,0,0,1,16.922-11.1M514,353.621a18.488,18.488,0,0,1,16.483-18.356,23.537,23.537,0,0,0-.194,2.954,23.07,23.07,0,0,0,7.553,17.078,23.168,23.168,0,0,0-17.725,12.012A18.4,18.4,0,0,1,514,353.621m8.009,24.64a18.283,18.283,0,0,1,.4-3.826,23.072,23.072,0,0,0,21.213-.58,23.007,23.007,0,0,0,6.135,20.331,18.426,18.426,0,0,1-27.752-15.925m62.8-.153a18.433,18.433,0,0,1-27.568,16.037,23.023,23.023,0,0,0,5.918-20.308,23.059,23.059,0,0,0,21.275.58,18.315,18.315,0,0,1,.375,3.69M569.119,355.16a23.057,23.057,0,0,0,7.411-16.942,23.537,23.537,0,0,0-.194-2.954,18.431,18.431,0,0,1,10.419,32,23.161,23.161,0,0,0-17.636-12.1" transform="translate(-509.35 -315.101)" fill="#558085"/>
</svg>
