<svg xmlns="http://www.w3.org/2000/svg" width="72.552" height="59.253" viewBox="0 0 72.552 59.253">
  <g id="Group_61" data-name="Group 61" transform="translate(-252.569 -1199.65)">
    <path id="Path_152" data-name="Path 152" d="M492.4,32.649,469.112,19.2V62.707L492.4,69.735Z" transform="translate(-211.572 1184.308)" fill="#558085"/>
    <path id="Path_153" data-name="Path 153" d="M521.267,32.739V69.751L544.71,62.7V19.2Z" transform="translate(-237.874 1184.307)" fill="#558085"/>
    <path id="Path_154" data-name="Path 154" d="M599.839,14.174a2.755,2.755,0,1,0-5.511,0v2.97h5.511Z" transform="translate(-274.718 1188.233)" fill="#558085"/>
    <path id="Path_155" data-name="Path 155" d="M595.011,66.032h-.684l2.757,9.632,2.752-9.632h0V27.324h-5.51V66.032Z" transform="translate(-274.717 1180.212)" fill="#558085"/>
    <path id="Path_156" data-name="Path 156" d="M518.354,20.962l-2.5-1.972V63.781l-25.88,8.362h-2.631l-25.765-7.2V18.99l-2.5,1.972V66.7l28.145,7.791h2.866l25.966-8.245,2.294-.675Z" transform="translate(-206.515 1184.414)" fill="#558085"/>
  </g>
</svg>
