<svg xmlns="http://www.w3.org/2000/svg" width="105.637" height="78.94" viewBox="0 0 105.637 78.94">
  <g id="Group_68" data-name="Group 68" transform="translate(-283.641 -2252.532)">
    <path id="Path_179" data-name="Path 179" d="M573.009,418.637h23.4a.576.576,0,0,0,.574-.576.568.568,0,0,0-.151-.381l-.032-.034L585.16,402.58l-.113-.124a.573.573,0,0,0-.424-.187.587.587,0,0,0-.377.147l-.07.081-.109.122-11.359,14.907-.174.213a.566.566,0,0,0-.1.321.576.576,0,0,0,.575.576" transform="translate(-288.677 1890.975)" fill="#558085"/>
    <path id="Path_180" data-name="Path 180" d="M596.223,439.575H572.774a.574.574,0,0,0-.574.574V458.5a.575.575,0,0,0,.574.576h7.547V447.531a.572.572,0,0,1,.574-.574H587.9a.572.572,0,0,1,.574.574v11.545h7.748a.576.576,0,0,0,.574-.576V440.149a.574.574,0,0,0-.574-.574" transform="translate(-288.559 1872.162)" fill="#558085"/>
    <path id="Path_181" data-name="Path 181" d="M759.969,429.884H736.76a.557.557,0,0,0-.567.551v23.436a.559.559,0,0,0,.567.552h23.21a.56.56,0,0,0,.569-.552V430.435a.557.557,0,0,0-.569-.551m-12.7,15.3a.56.56,0,0,1-.567.555H739.77a.562.562,0,0,1-.571-.555V440.97a.56.56,0,0,1,.571-.553H746.7a.558.558,0,0,1,.567.553Zm0-7.787a.56.56,0,0,1-.567.553H739.77a.561.561,0,0,1-.571-.553v-4.216a.561.561,0,0,1,.571-.552H746.7a.559.559,0,0,1,.567.552Zm10.6,7.787a.56.56,0,0,1-.569.555h-6.932a.56.56,0,0,1-.569-.555V440.97a.559.559,0,0,1,.569-.553H757.3a.558.558,0,0,1,.569.553Zm0-7.787a.56.56,0,0,1-.569.553h-6.932a.56.56,0,0,1-.569-.553v-4.216a.56.56,0,0,1,.569-.552H757.3a.559.559,0,0,1,.569.552Z" transform="translate(-371.261 1877.049)" fill="#558085"/>
    <path id="Path_182" data-name="Path 182" d="M651.647,320.14H628.934a.557.557,0,0,0-.555.557V398.32a.557.557,0,0,0,.555.555h22.713a.56.56,0,0,0,.559-.555V320.7a.56.56,0,0,0-.559-.557m-13.511,69.892a.3.3,0,0,1-.3.3h-5.2a.3.3,0,0,1-.3-.3v-5.8a.3.3,0,0,1,.3-.3h5.2a.3.3,0,0,1,.3.3Zm0-13.311a.3.3,0,0,1-.3.3h-5.2a.3.3,0,0,1-.3-.3v-5.794a.3.3,0,0,1,.3-.3h5.2a.3.3,0,0,1,.3.3Zm0-13.307a.3.3,0,0,1-.3.3h-5.2a.3.3,0,0,1-.3-.3v-5.8a.3.3,0,0,1,.3-.3h5.2a.3.3,0,0,1,.3.3Zm0-13.311a.3.3,0,0,1-.3.3h-5.2a.3.3,0,0,1-.3-.3v-5.8a.3.3,0,0,1,.3-.294h5.2a.3.3,0,0,1,.3.294Zm0-13.307a.3.3,0,0,1-.3.3h-5.2a.3.3,0,0,1-.3-.3V331a.3.3,0,0,1,.3-.3h5.2a.3.3,0,0,1,.3.3Zm10.2,53.236a.3.3,0,0,1-.3.3h-5.2a.3.3,0,0,1-.3-.3v-5.8a.3.3,0,0,1,.3-.3h5.2a.3.3,0,0,1,.3.3Zm0-13.311a.3.3,0,0,1-.3.3h-5.2a.3.3,0,0,1-.3-.3v-5.794a.3.3,0,0,1,.3-.3h5.2a.3.3,0,0,1,.3.3Zm0-13.307a.3.3,0,0,1-.3.3h-5.2a.3.3,0,0,1-.3-.3v-5.8a.3.3,0,0,1,.3-.3h5.2a.3.3,0,0,1,.3.3Zm0-13.311a.3.3,0,0,1-.3.3h-5.2a.3.3,0,0,1-.3-.3v-5.8a.3.3,0,0,1,.3-.294h5.2a.3.3,0,0,1,.3.294Zm0-13.307a.3.3,0,0,1-.3.3h-5.2a.3.3,0,0,1-.3-.3V331a.3.3,0,0,1,.3-.3h5.2a.3.3,0,0,1,.3.3Z" transform="translate(-316.89 1932.392)" fill="#558085"/>
    <path id="Path_183" data-name="Path 183" d="M760.536,419.9a.465.465,0,0,1-.466.468h-23.36a.466.466,0,0,1-.467-.468v-4.672a.467.467,0,0,1,.467-.466h23.36a.466.466,0,0,1,.466.466Z" transform="translate(-371.286 1884.675)" fill="#558085"/>
    <path id="Path_184" data-name="Path 184" d="M706.5,349.269a.6.6,0,0,0-.57-.435.59.59,0,0,0-.325.108c-.014.01-.028.017-.043.029l-.192.241-22.323,28.317-.1.138a.64.64,0,0,0-.194.442v34.8a.555.555,0,0,0,.557.553H706a.553.553,0,0,0,.555-.553V349.5a.556.556,0,0,0-.054-.232m-9.4,15.379.16-.2c1.528-1.96,4.1-5.129,5.356-6.668l.165-.2a.649.649,0,0,1,.5-.236.636.636,0,0,1,.62.52v7.164a.641.641,0,0,1-.617.638c-.01,0-.019.006-.028.006s-.018-.006-.028-.006h-5.578c-.01,0-.019.006-.029.006s-.018-.006-.028-.006a.641.641,0,0,1-.491-1.021m-3.532,39.659a.554.554,0,0,1-.555.555h-6.769a.554.554,0,0,1-.555-.555v-4.237a.553.553,0,0,1,.555-.553h6.769a.553.553,0,0,1,.555.553Zm0-7.829a.554.554,0,0,1-.555.555h-6.769a.554.554,0,0,1-.555-.555V392.24a.552.552,0,0,1,.555-.555h6.769a.552.552,0,0,1,.555.555Zm0-7.829a.555.555,0,0,1-.555.554h-6.769a.555.555,0,0,1-.555-.554v-4.239a.554.554,0,0,1,.555-.555h6.769a.554.554,0,0,1,.555.555Zm.019-17.157v9.334a.556.556,0,0,1-.555.555H686.27a.556.556,0,0,1-.559-.555V379.65a.629.629,0,0,1,.043-.208.422.422,0,0,1,.034-.064.55.55,0,0,1,.049-.074c.017-.026.043-.06.063-.091.865-1.239,4.77-6.048,6.41-8.059l.164-.2a.647.647,0,0,1,.5-.236.637.637,0,0,1,.619.519Zm10.329,32.815a.556.556,0,0,1-.555.555H696.6a.556.556,0,0,1-.559-.555v-4.237a.555.555,0,0,1,.559-.553h6.768a.556.556,0,0,1,.555.553Zm0-7.829a.556.556,0,0,1-.555.555H696.6a.556.556,0,0,1-.559-.555V392.24a.555.555,0,0,1,.559-.555h6.768a.555.555,0,0,1,.555.555Zm0-7.829a.557.557,0,0,1-.555.554H696.6a.557.557,0,0,1-.559-.554v-4.239a.556.556,0,0,1,.559-.555h6.768a.556.556,0,0,1,.555.555Zm0-7.831a.556.556,0,0,1-.555.553H696.6a.555.555,0,0,1-.559-.553v-4.238a.556.556,0,0,1,.559-.555h6.768a.556.556,0,0,1,.555.555Zm0-7.831a.556.556,0,0,1-.555.555H696.6a.556.556,0,0,1-.559-.555v-4.237a.556.556,0,0,1,.559-.557h6.768a.557.557,0,0,1,.555.557Z" transform="translate(-344.312 1917.922)" fill="#558085"/>
  </g>
</svg>
