<svg xmlns="http://www.w3.org/2000/svg" width="74.851" height="79.137" viewBox="0 0 74.851 79.137">
  <g id="Group_65" data-name="Group 65" transform="translate(0 0)">
    <path id="Path_161" data-name="Path 161" d="M623.206,356.05,607.38,371.1a2.622,2.622,0,0,0-.9,2.261v42.193a.9.9,0,0,0,.9.9h16.347a.9.9,0,0,0,.9-.9V356.43c0-.5-.39-1.407-1.422-.38" transform="translate(-555.549 -337.322)" fill="#558085"/>
    <path id="Path_162" data-name="Path 162" d="M531.23,395.615,515.4,410.668a2.624,2.624,0,0,0-.9,2.259v22.584a.9.9,0,0,0,.9.9H531.75a.9.9,0,0,0,.9-.9V395.993c0-.5-.393-1.41-1.422-.378" transform="translate(-509.165 -357.273)" fill="#558085"/>
    <path id="Path_163" data-name="Path 163" d="M578.588,319.217a.449.449,0,0,0-.134-.343.475.475,0,0,0-.293-.128l-.087.005-.129.008-12.118,2.733-.22.023a.477.477,0,0,0-.236.124.464.464,0,0,0,0,.652l.137.137,2.767,2.767-27.459,27.459L528.133,339.97a.361.361,0,0,0-.516,0l-3.441,3.442s0,0,0,0l-20.33,20.326a.369.369,0,0,0,0,.517l3.446,3.444a.36.36,0,0,0,.512,0l20.077-20.072,9.2,9.2a.168.168,0,0,0,.029.043l3.443,3.439a.36.36,0,0,0,.516,0l31.164-31.164,2.907,2.9a.453.453,0,0,0,.646,0,.443.443,0,0,0,.132-.3l0-.039,2.662-12.37Z" transform="translate(-503.738 -318.746)" fill="#558085"/>
    <path id="Path_164" data-name="Path 164" d="M577.5,400.878l-7.657,7.721a.366.366,0,0,1-.493-.019l-6.937-7.072c-1.27-1.265-1.544-.239-1.544.258v36.363a.9.9,0,0,0,.9.9h16.352a.9.9,0,0,0,.9-.9V401.163c0-.5-.392-1.41-1.515-.286" transform="translate(-532.548 -359.894)" fill="#558085"/>
  </g>
</svg>
