<svg id="Group_64" data-name="Group 64" xmlns="http://www.w3.org/2000/svg" width="79.429" height="79.427" viewBox="0 0 79.429 79.427">
  <path id="Path_166" data-name="Path 166" d="M581.59,146.483a1.909,1.909,0,0,0,1.872-1.754v-9.992a1.88,1.88,0,0,0-3.753,0v9.992a1.915,1.915,0,0,0,1.881,1.754" transform="translate(-541.671 -67.057)" fill="#558085"/>
  <path id="Path_167" data-name="Path 167" d="M559.867,34.476A22.821,22.821,0,1,0,582.685,57.3a22.819,22.819,0,0,0-22.818-22.82m-1.689,9.015a1.7,1.7,0,0,1,3.389,0v7.835a1.7,1.7,0,0,1-3.389,0Zm1.693,25.5a11.871,11.871,0,0,1-3.527-23.205V50.2a7.769,7.769,0,1,0,7.035-.01V45.778a11.87,11.87,0,0,1-3.508,23.211" transform="translate(-520.158 -17.386)" fill="#558085"/>
  <path id="Path_168" data-name="Path 168" d="M516.488,78.2a1.908,1.908,0,0,0-1.754-1.873h-9.993a1.88,1.88,0,0,0,0,3.753h9.993a1.913,1.913,0,0,0,1.754-1.88" transform="translate(-502.974 -38.494)" fill="#558085"/>
  <path id="Path_169" data-name="Path 169" d="M649.461,78.2a1.908,1.908,0,0,0-1.754-1.873h-9.993a1.88,1.88,0,0,0,0,3.753h9.993a1.913,1.913,0,0,0,1.754-1.88" transform="translate(-570.032 -38.494)" fill="#558085"/>
  <path id="Path_170" data-name="Path 170" d="M581.185,13.513a1.909,1.909,0,0,0,1.872-1.753V1.767a1.88,1.88,0,0,0-3.753,0v9.994a1.915,1.915,0,0,0,1.881,1.753" transform="translate(-541.467)" fill="#558085"/>
  <path id="Path_171" data-name="Path 171" d="M525.049,46.069a1.905,1.905,0,0,0-.591-2.5l-8.673-4.963a1.879,1.879,0,0,0-1.863,3.257l8.673,4.963a1.912,1.912,0,0,0,2.455-.761" transform="translate(-508.072 -19.373)" fill="#558085"/>
  <path id="Path_172" data-name="Path 172" d="M640.456,112.12a1.91,1.91,0,0,0-.591-2.5l-8.673-4.963a1.88,1.88,0,0,0-1.864,3.257L638,112.881a1.913,1.913,0,0,0,2.456-.761" transform="translate(-566.272 -52.682)" fill="#558085"/>
  <path id="Path_173" data-name="Path 173" d="M608.386,22.073a1.909,1.909,0,0,0,2.5-.591l4.963-8.673a1.88,1.88,0,0,0-3.257-1.864l-4.963,8.672a1.913,1.913,0,0,0,.761,2.457" transform="translate(-555.653 -5.097)" fill="#558085"/>
  <path id="Path_174" data-name="Path 174" d="M542.336,137.48a1.908,1.908,0,0,0,2.5-.592l4.963-8.672a1.88,1.88,0,0,0-3.257-1.865l-4.963,8.673a1.914,1.914,0,0,0,.761,2.457" transform="translate(-522.345 -63.297)" fill="#558085"/>
  <path id="Path_175" data-name="Path 175" d="M548.937,22.134a1.908,1.908,0,0,0,.749-2.454L544.7,11.017a1.88,1.88,0,0,0-3.252,1.872l4.981,8.661a1.913,1.913,0,0,0,2.5.584" transform="translate(-522.28 -5.135)" fill="#558085"/>
  <path id="Path_176" data-name="Path 176" d="M615.223,137.405a1.908,1.908,0,0,0,.75-2.453l-4.981-8.664a1.879,1.879,0,0,0-3.252,1.872l4.98,8.663a1.912,1.912,0,0,0,2.5.582" transform="translate(-555.709 -63.266)" fill="#558085"/>
  <path id="Path_177" data-name="Path 177" d="M628.67,45.961a1.909,1.909,0,0,0,2.453.75l8.662-4.981a1.879,1.879,0,0,0-1.869-3.253l-8.663,4.981a1.912,1.912,0,0,0-.583,2.5" transform="translate(-566.241 -19.306)" fill="#558085"/>
  <path id="Path_178" data-name="Path 178" d="M513.4,112.248a1.907,1.907,0,0,0,2.453.749l8.662-4.981a1.879,1.879,0,0,0-1.869-3.253l-8.663,4.981a1.914,1.914,0,0,0-.583,2.5" transform="translate(-508.11 -52.734)" fill="#558085"/>
</svg>
