<svg xmlns="http://www.w3.org/2000/svg" width="106.348" height="45.566" viewBox="0 0 106.348 45.566">
  <g id="Group_58" data-name="Group 58" transform="translate(-229.292 -744.328)">
    <path id="Path_142" data-name="Path 142" d="M507.373,31.307a3.864,3.864,0,1,0-3.866-3.863,3.861,3.861,0,0,0,3.866,3.863" transform="translate(-180.917 720.749)" fill="#558085"/>
    <path id="Path_143" data-name="Path 143" d="M506.464,42.151a2.338,2.338,0,0,0-.294-.024h-8.443a2.174,2.174,0,0,0-.283.024,5.15,5.15,0,0,0-4.681,5.131V57.99a1.5,1.5,0,0,0,2.995,0v-9.2c0-.346.1-.812.73-.812.433,0,.526.462.541.757V76.305a2.151,2.151,0,1,0,4.3,0V60.419a.592.592,0,0,1,.622-.631h0a.584.584,0,0,1,.611.631V76.305a2.153,2.153,0,0,0,4.306,0V48.738c.016-.294.107-.757.543-.757.631,0,.731.467.731.812v9.2a1.5,1.5,0,0,0,2.995,0V47.281a5.148,5.148,0,0,0-4.675-5.131" transform="translate(-175.499 711.396)" fill="#558085"/>
    <path id="Path_144" data-name="Path 144" d="M446.065,35.4a3.661,3.661,0,1,0-3.66-3.659,3.654,3.654,0,0,0,3.66,3.659" transform="translate(-150.104 718.479)" fill="#558085"/>
    <path id="Path_145" data-name="Path 145" d="M443.453,51.364c.478-.138.611.5.611.5l2.452,8.262s.467,1.772,2,1.318,1-2.268,1-2.268l-3.041-9.9s-1.087-2.862-3.493-2.862h-7.752c-2.406,0-3.5,2.862-3.5,2.862l-3.041,9.9s-.542,1.815,1,2.268,2-1.318,2-1.318l2.453-8.262s.133-.636.61-.5.3.817.3.817l-4.268,15.484h3.969v11.09a1.905,1.905,0,0,0,3.811,0V67.665h1.083v11.09a1.907,1.907,0,0,0,3.813,0V67.665h3.968l-4.265-15.484s-.179-.68.3-.817" transform="translate(-143.14 709.234)" fill="#558085"/>
    <path id="Path_146" data-name="Path 146" d="M401.863,35.4a3.661,3.661,0,1,0-3.658-3.659,3.657,3.657,0,0,0,3.658,3.659" transform="translate(-127.814 718.479)" fill="#558085"/>
    <path id="Path_147" data-name="Path 147" d="M367.419,47.113s-1.084-2.862-3.492-2.862h-7.752c-2.405,0-3.5,2.862-3.5,2.862l-3.04,9.9a2.751,2.751,0,0,0-.09.611,1.088,1.088,0,0,0-1.8.081l-.013-.006c-.089.076-1.51,2.607-1.979,3.076a1.23,1.23,0,0,1-.94.445h-3.689a1.228,1.228,0,0,1-.941-.445c-.475-.468-1.89-3-1.981-3.076l-.009.006a1.114,1.114,0,0,0-.94-.52,1.092,1.092,0,0,0-.894.488V47.281a5.149,5.149,0,0,0-4.68-5.131,2.2,2.2,0,0,0-.284-.024h-8.443a2.346,2.346,0,0,0-.295.024,5.15,5.15,0,0,0-4.677,5.131V57.99a1.493,1.493,0,0,0,.805,1.319.587.587,0,0,0-.053.133L315.3,77.626a.566.566,0,0,0,.451.662.6.6,0,0,0,.106.009.566.566,0,0,0,.555-.462l3.431-18.184a.565.565,0,0,0,0-.214,1.5,1.5,0,0,0,1.135-1.447v-9.2c0-.346.1-.812.731-.812.435,0,.526.462.545.757V76.305a2.151,2.151,0,1,0,4.3,0V60.419a.589.589,0,0,1,.614-.631h0a.591.591,0,0,1,.621.631V76.305a2.151,2.151,0,1,0,4.3,0V48.738c.013-.294.111-.757.543-.757.634,0,.729.467.729.812v9.2a1.494,1.494,0,0,0,2.844.644c.023.081.045.145.045.145l3.07,5.555a1.969,1.969,0,0,1,.188.733V66.16l-1.619,5.947h1.619V77h.006a1.5,1.5,0,1,0,3,0V72.288a1.064,1.064,0,0,1,0-.181h.906a1.068,1.068,0,0,1,0,.181V77a1.5,1.5,0,0,0,3.005,0V72.107h1.624l-1.624-5.982V65.067a1.99,1.99,0,0,1,.185-.733l2.838-5.128s.181-.387.282-.667a1.377,1.377,0,0,0,.9.742c1.531.454,2-1.318,2-1.318l2.452-8.262s.133-.635.611-.5.3.817.3.817L351.728,65.5H355.7v11.09a1.906,1.906,0,0,0,3.812,0V65.5h1.083v11.09a1.906,1.906,0,0,0,3.811,0V65.5h3.97l-4.264-15.484s-.181-.68.294-.817.613.5.613.5l2.45,8.262s.466,1.772,2,1.318,1-2.268,1-2.268Z" transform="translate(-86.002 711.396)" fill="#558085"/>
    <path id="Path_148" data-name="Path 148" d="M478.85,70.577A3.045,3.045,0,1,0,475.8,67.53a3.042,3.042,0,0,0,3.045,3.048" transform="translate(-166.948 700.12)" fill="#558085"/>
    <path id="Path_149" data-name="Path 149" d="M481.622,86.641c-.037-.117-1.939-4.781-2.163-5.435-.687-2.005-1.937-1.988-3.14-2.02s-1.924,0-1.924,0-.769-.032-2.359.015-2.087.863-3.838,5.366c-.25.649-1.095,2.747-1.106,2.873l.011,0a1.057,1.057,0,0,0,.444,1.441,1.015,1.015,0,0,0,1.3-.425l1.656-5.279s.287-.353.287.012V95.618h.008a1.562,1.562,0,1,0,3.124,0v-4.9s-.091-.693.468-.693.472.693.472.693v4.9a1.565,1.565,0,0,0,3.131,0V83.191c0-.365.193-.1.193-.1l1.3,3.615a8.656,8.656,0,0,0,.737,1.687,1.155,1.155,0,0,0,1.509-.624,1.139,1.139,0,0,0-.123-1.111Z" transform="translate(-162.502 692.714)" fill="#558085"/>
    <path id="Path_150" data-name="Path 150" d="M335.327,31.307a3.864,3.864,0,1,0-3.858-3.863,3.867,3.867,0,0,0,3.858,3.863" transform="translate(-94.159 720.749)" fill="#558085"/>
    <path id="Path_151" data-name="Path 151" d="M368.029,70.577a3.045,3.045,0,1,0-3.044-3.048,3.043,3.043,0,0,0,3.044,3.048" transform="translate(-111.061 700.12)" fill="#558085"/>
  </g>
</svg>
