<svg xmlns="http://www.w3.org/2000/svg" width="62.382" height="61.154" viewBox="0 0 62.382 61.154">
  <g id="Group_70" data-name="Group 70" transform="translate(-282.726 -2866.848)">
    <path id="Rectangle_69" data-name="Rectangle 69" d="M.566,0H3.745a.569.569,0,0,1,.569.569v8.7a.568.568,0,0,1-.568.568H.568A.568.568,0,0,1,0,9.265V.566A.566.566,0,0,1,.566,0Z" transform="translate(299.598 2902.333)" fill="#558085"/>
    <path id="Path_194" data-name="Path 194" d="M575.968,740.873H514.152a.29.29,0,0,0-.283.291v3.778a.282.282,0,0,0,.283.278h61.816a.284.284,0,0,0,.284-.278v-3.778a.292.292,0,0,0-.284-.291" transform="translate(-231.143 2175.272)" fill="#558085"/>
    <path id="Path_195" data-name="Path 195" d="M575.968,756.022H514.152a.282.282,0,0,0-.283.278v3.79a.284.284,0,0,0,.283.279h61.816a.286.286,0,0,0,.284-.279V756.3a.284.284,0,0,0-.284-.278" transform="translate(-231.143 2167.633)" fill="#558085"/>
    <path id="Path_196" data-name="Path 196" d="M604.755,690.255a9.146,9.146,0,0,0-5.347-2.015,7.145,7.145,0,0,0-4.964,2.109.533.533,0,0,0-.165.388v.337a.538.538,0,0,0,.176.422.5.5,0,0,0,.436.1.6.6,0,0,0,.116-.03.824.824,0,0,0,.309-.2,5,5,0,0,1,2.476-.515,9.351,9.351,0,0,1,6.369,2.669l.057.051a.745.745,0,0,0,.538.224.729.729,0,0,0,.523-.219l.05-.052a9.382,9.382,0,0,1,6.379-2.673,5,5,0,0,1,2.482.515.912.912,0,0,0,.342.209.758.758,0,0,0,.362.011.531.531,0,0,0,.389-.51v-.3a.532.532,0,0,0-.166-.383,7.162,7.162,0,0,0-5.024-2.166,9.073,9.073,0,0,0-5.336,2.018" transform="translate(-271.693 2201.817)" fill="#558085"/>
    <path id="Path_197" data-name="Path 197" d="M607.314,642.01a.514.514,0,0,0-.27.326l-.062.206a.529.529,0,0,0,.081.464.509.509,0,0,0,.383.208.191.191,0,0,0,.077,0,.667.667,0,0,0,.3-.076,1.582,1.582,0,0,1,.375-.042,5.364,5.364,0,0,1,4.416,2.884l.021.04a.632.632,0,0,0,.4.317.778.778,0,0,0,.2.031.658.658,0,0,0,.312-.077l.041-.02a6.161,6.161,0,0,1,2.758-.682,4.2,4.2,0,0,1,2.819.9.721.721,0,0,0,.207.231,1.557,1.557,0,0,0,.2.1.526.526,0,0,0,.091.013.289.289,0,0,0,.055,0,.531.531,0,0,0,.245-.061.519.519,0,0,0,.263-.317l.052-.182a.46.46,0,0,0,.022-.15.5.5,0,0,0-.072-.265,4.647,4.647,0,0,0-4.193-2.52,6.6,6.6,0,0,0-2.225.417,5.4,5.4,0,0,0-4.169-2.336,5.137,5.137,0,0,0-2.317.587" transform="translate(-278.089 2225.425)" fill="#558085"/>
    <path id="Path_198" data-name="Path 198" d="M581.324,658.774l.018.278a.515.515,0,0,0,.247.416.52.52,0,0,0,.416.063.734.734,0,0,0,.09-.028.671.671,0,0,0,.267-.2,4.526,4.526,0,0,1,2.358-.535,7.641,7.641,0,0,1,4.888,1.849l.043.045a.734.734,0,0,0,.477.179h.045a.719.719,0,0,0,.485-.234l.042-.047a7.426,7.426,0,0,1,5.419-2.5,3.68,3.68,0,0,1,1.612.294.816.816,0,0,0,.321.167.6.6,0,0,0,.356-.016.526.526,0,0,0,.351-.531l-.014-.242a.525.525,0,0,0-.186-.367,6.062,6.062,0,0,0-3.954-1.556,7.367,7.367,0,0,0-4.627,1.913,7.719,7.719,0,0,0-4.124-1.369,5.9,5.9,0,0,0-4.385,2.026.544.544,0,0,0-.144.4" transform="translate(-265.16 2218.171)" fill="#558085"/>
    <path id="Path_199" data-name="Path 199" d="M518.219,656.483a6.7,6.7,0,0,1,6.7-6.7c.145,0,.286.013.43.021a9.063,9.063,0,1,1,17.184,4.64,10.129,10.129,0,0,1-2.2,20.018c-.408,0-13.523-.079-13.523-.079a7.166,7.166,0,0,1-5.22-12.087,6.694,6.694,0,0,1-3.374-5.812" transform="translate(-233.337 2225.424)" fill="#558085"/>
  </g>
</svg>
