<svg id="Group_59" data-name="Group 59" xmlns="http://www.w3.org/2000/svg" width="65.76" height="56.042" viewBox="0 0 65.76 56.042">
  <path id="Path_136" data-name="Path 136" d="M382.722,438.047v1.716a.306.306,0,0,0-.006.039.327.327,0,0,0,.006.041.806.806,0,0,0,.791.77c.005,0,.01,0,.016,0s.013,0,.02,0H403.67c.005,0,.011,0,.017,0s.012,0,.017,0a.809.809,0,0,0,.794-.805s0,0,0-.005a.013.013,0,0,1,0-.006v-1.941c11.328-3.712,19.813-12.893,21.68-24.081,0-.024.007-.047.011-.067a.677.677,0,0,0,.011-.112.812.812,0,0,0-.813-.814h-64.13a.813.813,0,0,0-.816.814l.042.365c1.961,11.3,10.679,20.527,22.24,24.089" transform="translate(-360.44 -384.573)" fill="#558085"/>
  <path id="Path_137" data-name="Path 137" d="M446.342,356.715c-.264.376-6.46,9.3.138,16.509,3.026,3.31,2.764,6.231,1.9,8.2h4.233c.857-2.913.5-6.566-2.933-10.321-4.862-5.315.062-12.5.136-12.61a1.587,1.587,0,0,0-.687-2.369,2.25,2.25,0,0,0-2.787.586" transform="translate(-402.302 -355.881)" fill="#558085"/>
  <path id="Path_138" data-name="Path 138" d="M422.64,381.43h4.234c.856-2.914.5-6.566-2.936-10.321-4.863-5.316.057-12.5.135-12.614a1.584,1.584,0,0,0-.689-2.365,2.245,2.245,0,0,0-2.783.586c-.266.374-6.467,9.3.138,16.509,3.026,3.311,2.763,6.233,1.9,8.2" transform="translate(-389.319 -355.881)" fill="#558085"/>
  <path id="Path_139" data-name="Path 139" d="M394.859,356.714c-.268.376-6.464,9.3.136,16.509,3.028,3.312,2.766,6.233,1.9,8.2h4.233c.856-2.911.5-6.565-2.938-10.32-4.863-5.315.061-12.5.138-12.613a1.587,1.587,0,0,0-.691-2.366,2.238,2.238,0,0,0-2.782.586" transform="translate(-376.338 -355.879)" fill="#558085"/>
</svg>
