<svg xmlns="http://www.w3.org/2000/svg" width="51.233" height="69.123" viewBox="0 0 51.233 69.123">
  <g id="Group_62" data-name="Group 62" transform="translate(-256.498 -1352.74)">
    <path id="Path_157" data-name="Path 157" d="M518.035,320.25H501.894a.207.207,0,0,0-.2.206v5.364a.207.207,0,0,0,.2.206h6.427l-7.136,7.138a21.132,21.132,0,1,0-15.762,37.584v6.181h-6.366a.2.2,0,0,0-.208.2v5.749a.2.2,0,0,0,.208.205h6.366v6.082a.2.2,0,0,0,.2.205h5.746a.207.207,0,0,0,.208-.205v-6.082h6.365a.2.2,0,0,0,.205-.205v-5.749a.2.2,0,0,0-.205-.2h-6.365v-6.281a21.121,21.121,0,0,0,13.848-33.016l7.035-7.036v6a.208.208,0,0,0,.208.205h5.362a.208.208,0,0,0,.21-.205V320.456a.208.208,0,0,0-.21-.206m-29.883,45.1a15.56,15.56,0,1,1,15.561-15.561,15.577,15.577,0,0,1-15.561,15.561" transform="translate(-210.513 1032.49)" fill="#558085"/>
    <path id="Path_158" data-name="Path 158" d="M509.735,366.956H490.861a.2.2,0,0,0-.2.184v4.57a.194.194,0,0,0,.2.187h18.874a.2.2,0,0,0,.209-.187v-4.57a.2.2,0,0,0-.209-.184" transform="translate(-222.437 1008.936)" fill="#558085"/>
    <path id="Path_159" data-name="Path 159" d="M509.735,383.415H490.861a.2.2,0,0,0-.2.19v4.569a.2.2,0,0,0,.2.184h18.874a.2.2,0,0,0,.209-.184v-4.569a.2.2,0,0,0-.209-.19" transform="translate(-222.437 1000.635)" fill="#558085"/>
  </g>
</svg>
