<svg id="Group_66" data-name="Group 66" xmlns="http://www.w3.org/2000/svg" width="79.075" height="79.866" viewBox="0 0 79.075 79.866">
  <path id="Path_165" data-name="Path 165" d="M577.854,678.311,559.345,667.63V646.26a1.261,1.261,0,0,0-.632-1.093l-19.136-11.049a1.266,1.266,0,0,0-1.262,0l-19.138,11.049a1.261,1.261,0,0,0-.631,1.093v21.37l-18.507,10.682a1.262,1.262,0,0,0-.631,1.094v22.1a1.262,1.262,0,0,0,.631,1.094l19.138,11.047a1.264,1.264,0,0,0,1.263,0l18.506-10.682,18.5,10.682a1.263,1.263,0,0,0,1.262,0L577.854,702.6a1.262,1.262,0,0,0,.631-1.094V679.4a1.261,1.261,0,0,0-.631-1.094m-40.169,21.008-15.35-8.864,15.35-8.864Zm17.872-30.96-15.347,8.859V659.5Zm-17.872,8.86-15.349-8.86,15.349-8.864Zm3.788,2.187,16.61-9.588L574.7,679.4,558.083,689Zm15.348-13.234-15.348-8.863,15.348-8.862Zm-20.4-8.863-15.349,8.864V648.447Zm-17.874,53.057-16.613-9.589V681.592l16.613,9.593Zm2.525,0V692.643l15.349,8.864Zm54.889-9.589-16.615,9.589V691.185l16.615-9.593Z" transform="translate(-499.41 -633.949)" fill="#558085"/>
</svg>
