<svg id="Group_180" data-name="Group 180" xmlns="http://www.w3.org/2000/svg" width="46.189" height="46.188" viewBox="0 0 46.189 46.188">
  <g id="Icono">
    <path id="Path_132" data-name="Path 132" d="M45.481,22.388a.706.706,0,0,0-.706.706A21.68,21.68,0,1,1,23.094,1.413a.707.707,0,1,0,0-1.413A23.094,23.094,0,1,0,46.189,23.094a.707.707,0,0,0-.708-.706" fill="#27494d"/>
    <path id="Path_133" data-name="Path 133" d="M26.341,42.425a16.083,16.083,0,1,1,0-32.166.707.707,0,0,0,0-1.415,17.5,17.5,0,1,0,17.5,17.5.706.706,0,1,0-1.413,0A16.1,16.1,0,0,1,26.341,42.425" transform="translate(-3.247 -3.247)" fill="#27494d"/>
    <path id="Path_134" data-name="Path 134" d="M19.1,29.586A10.5,10.5,0,0,1,29.587,19.1a.707.707,0,0,0,0-1.415,11.9,11.9,0,1,0,11.9,11.9.706.706,0,1,0-1.413,0,10.487,10.487,0,1,1-20.973,0" transform="translate(-6.493 -6.492)" fill="#27494d"/>
  </g>
</svg>
