<svg xmlns="http://www.w3.org/2000/svg" width="72.564" height="71.399" viewBox="0 0 72.564 71.399">
  <g id="Group_71" data-name="Group 71" transform="translate(-284.267 -2992.051)">
    <path id="Path_201" data-name="Path 201" d="M649.419,1.135a5.53,5.53,0,0,0-1.059,3.916A5.524,5.524,0,0,0,651,8.133a5.52,5.52,0,0,0,1.058-3.916,5.516,5.516,0,0,0-2.64-3.083" transform="translate(-302.927 2991.479)" fill="#558085"/>
    <path id="Path_202" data-name="Path 202" d="M642.9,16.866a5.526,5.526,0,0,0,1.058-3.918,5.515,5.515,0,0,0-2.64-3.081,5.522,5.522,0,0,0-1.061,3.916,5.534,5.534,0,0,0,2.642,3.083" transform="translate(-298.84 2987.074)" fill="#558085"/>
    <path id="Path_203" data-name="Path 203" d="M658.05,17.646a4.91,4.91,0,0,0,3.373,1.431,5.123,5.123,0,0,0,3.127-2.008,4.9,4.9,0,0,0-3.372-1.431,5.129,5.129,0,0,0-3.128,2.008" transform="translate(-307.853 2984.17)" fill="#558085"/>
    <path id="Path_204" data-name="Path 204" d="M661.976,1.269c-1.461,1.483-1.255,4.107-1.255,4.107a5.676,5.676,0,0,0,4.04-1.258c1.461-1.481,1.255-4.105,1.255-4.105a5.676,5.676,0,0,0-4.04,1.257" transform="translate(-309.195 2992.05)" fill="#558085"/>
    <path id="Path_205" data-name="Path 205" d="M653.7,28.1a5.127,5.127,0,0,0,3.472-1.325,4.915,4.915,0,0,0-3.007-2.091,5.136,5.136,0,0,0-3.474,1.326A4.912,4.912,0,0,0,653.7,28.1" transform="translate(-304.142 2979.613)" fill="#558085"/>
    <path id="Path_206" data-name="Path 206" d="M644.446,94.319H631.069a1.892,1.892,0,1,0,0,3.785h13.378a1.892,1.892,0,0,0,0-3.785" transform="translate(-293.291 2944.486)" fill="#558085"/>
    <path id="Path_207" data-name="Path 207" d="M644.446,136.4H631.069a1.892,1.892,0,1,0,0,3.785h13.378a1.892,1.892,0,0,0,0-3.785" transform="translate(-293.291 2923.264)" fill="#558085"/>
    <path id="Path_208" data-name="Path 208" d="M537.67,84.807a8.309,8.309,0,0,0-.928-.239s.342.107.928.239" transform="translate(-246.678 2949.403)" fill="#558085"/>
    <path id="Path_209" data-name="Path 209" d="M596.813,57.913h-12.4a1.079,1.079,0,0,0-1.077,1.077v3.754l-8.092.889-11.822-.271V56.142a32.505,32.505,0,0,0,4.7-.954c11.38-3.211,13.862-12.62,13.614-19.13-.247-6.63,1.874-9.2,4.923-10.349a13.711,13.711,0,0,1,2.527-.67,20.293,20.293,0,0,0,1.092,5.777c.271-.015.539-.038.807-.067a19.189,19.189,0,0,1-1.115-5.824,14.169,14.169,0,0,1,2.7-.081,17.119,17.119,0,0,1-2.568-1.829c.511-3.139,2.381-5.067,4.308-7.038a23.179,23.179,0,0,0,3.016-3.541L596.759,12a22.362,22.362,0,0,1-2.917,3.415c-1.88,1.923-3.776,3.887-4.419,7a25.463,25.463,0,0,1-1.948-1.961c-2.807-3.146-6.419-.835-11.571,3.961S564.27,29.381,557.94,22.9c-8.351-8.549-15.636-8.5-20.632-8.016,3.417,1.455,4.613,4.649,6.343,12.765,1.812,8.517,6.384,12.37,12.638,12.9-3.479,1.229-3.651,3.192-8.311,6.411-3.64,2.511-8.76,1.717-10.836,1.246,3.81,1.188,8.324,5.186,12.363,6.576a29.916,29.916,0,0,0,7.37,1.511v6.913L535.7,62.73v4.823l39.551-.905,8.092.891v3.751a1.08,1.08,0,0,0,1.077,1.079h12.4a1.081,1.081,0,0,0,1.079-1.079v-12.3a1.079,1.079,0,0,0-1.079-1.077M558.824,56.4c.881.015,1.766-.011,2.652-.071v6.989l-2.652-.06Z" transform="translate(-246.15 2985.997)" fill="#558085"/>
    <path id="Path_210" data-name="Path 210" d="M529.168,117.191a1.728,1.728,0,0,1-1.584,1.842h-.953a1.729,1.729,0,0,1-1.584-1.842v-3.334a1.729,1.729,0,0,1,1.584-1.842h.953a1.727,1.727,0,0,1,1.584,1.842Z" transform="translate(-240.78 2935.561)" fill="#558085"/>
  </g>
</svg>
