<svg id="Group_60" data-name="Group 60" xmlns="http://www.w3.org/2000/svg" width="106.903" height="74.781" viewBox="0 0 106.903 74.781">
  <path id="Path_140" data-name="Path 140" d="M511.2,753.152c0-4.486-2.879-8.123-7.239-8.123-2.18,0-4.81,2.387-6.237,3.856-1.428-1.47-3.884-3.859-6.065-3.859-4.36,0-7.415,3.637-7.415,8.125a8.216,8.216,0,0,0,2.313,5.745l11.176,11.2L508.9,758.908l-.009-.008a8.22,8.22,0,0,0,2.314-5.747" transform="translate(-404.3 -713.59)" fill="#558085"/>
  <path id="Path_141" data-name="Path 141" d="M382.287,756.391c-.038,0-.075,0-.114,0a1.834,1.834,0,0,1-1.7-1.521L374.8,721.8l-8.6,15.944a1.835,1.835,0,0,1-3.432-.611l-3.651-25.517-6.679,15a1.835,1.835,0,0,1-1.676,1.089H324.8a1.835,1.835,0,1,1,0-3.671H349.57l8.785-19.733a1.836,1.836,0,0,1,3.494.486l3.764,26.311,8.48-15.724a1.835,1.835,0,0,1,3.424.561l5.257,30.622,19.16-63.646a1.836,1.836,0,0,1,3.411-.269l10.082,20.9a1.835,1.835,0,0,1-3.306,1.595l-8.032-16.651-20.048,66.593a1.835,1.835,0,0,1-1.756,1.306" transform="translate(-322.967 -681.611)" fill="#558085"/>
</svg>
