<svg xmlns="http://www.w3.org/2000/svg" width="68.923" height="58.315" viewBox="0 0 68.923 58.315">
  <g id="Group_69" data-name="Group 69" transform="translate(0 0)">
    <path id="Path_191" data-name="Path 191" d="M576.051,402.058c-1.6-2.164-11.95-15.358-26.459-15.358-12.6,0-26.077,11.427-26.077,11.427s-5.063-10.362-15.419-11.358c-.061,0-.125-.013-.194-.013h-.064a.421.421,0,0,0-.4.41,1.148,1.148,0,0,0,.162.379c1.335,2.216,4.741,8.522,4.741,14.82,0,6.32-3.427,12.642-4.749,14.847l-.09.14a.419.419,0,0,0-.064.219.412.412,0,0,0,.382.408l.112-.009a.4.4,0,0,0,.109-.01c10.388-.968,15.47-11.362,15.47-11.362s13.478,11.428,26.077,11.428c14.508,0,24.857-13.194,26.459-15.354.044-.059.08-.11.112-.149a.443.443,0,0,0,.034-.159.426.426,0,0,0-.034-.158c-.032-.044-.068-.095-.112-.149m-18.392,1.974a4.234,4.234,0,1,1,4.24-4.236,4.237,4.237,0,0,1-4.24,4.236" transform="translate(-507.273 -359.711)" fill="#558085"/>
    <path id="Path_192" data-name="Path 192" d="M507.6,334.443a.4.4,0,0,0-.08-.018.419.419,0,0,0-.416.421v2.887a.407.407,0,0,0,.121.3c7,6.085,13.635.384,15.169-1.123a.39.39,0,0,1,.11-.117.425.425,0,0,1,.229-.075.4.4,0,0,1,.282.112.065.065,0,0,0,.02.017c7.911,7.55,16.206,1.435,17.932,0l.17-.155a.365.365,0,0,1,.158-.031.385.385,0,0,1,.165.031l.171.155c1.725,1.435,10.02,7.55,17.931,0,0,0,.012-.01.015-.017a.4.4,0,0,1,.282-.112.413.413,0,0,1,.229.075.438.438,0,0,1,.117.117c1.533,1.507,8.158,7.208,15.167,1.123a.42.42,0,0,0,.12-.3v-2.887a.414.414,0,0,0-.411-.421.432.432,0,0,0-.09.018c-.065.037-.132.072-.21.109a12.746,12.746,0,0,1-14.9-2.092c-.057-.053-.117-.106-.176-.168a.441.441,0,0,0-.177-.038.7.7,0,0,0-.125.019.473.473,0,0,0-.211.164c-1.807,1.378-10.1,6.993-17.49.1l-.109-.105a.459.459,0,0,0-.3-.124.44.44,0,0,0-.289.124l-.115.105c-7.383,6.891-15.688,1.275-17.493-.1a.453.453,0,0,0-.205-.164.8.8,0,0,0-.132-.019.465.465,0,0,0-.174.038,1.962,1.962,0,0,1-.178.168,12.744,12.744,0,0,1-14.9,2.092c-.076-.037-.148-.072-.213-.109" transform="translate(-507.103 -332.254)" fill="#558085"/>
    <path id="Path_193" data-name="Path 193" d="M522.395,358.105a.428.428,0,0,1,.339-.193.406.406,0,0,1,.284.116.079.079,0,0,0,.018.018c7.909,7.54,16.206,1.428,17.933,0l.169-.162a.424.424,0,0,1,.157-.026.459.459,0,0,1,.167.026l.17.162c1.725,1.428,10.019,7.54,17.931,0,0,0,.009-.011.015-.018a.4.4,0,0,1,.281-.116.414.414,0,0,1,.229.078.446.446,0,0,1,.117.115c1.533,1.508,8.157,7.212,15.168,1.121a.408.408,0,0,0,.123-.292v-2.9a.413.413,0,0,0-.413-.414.553.553,0,0,0-.09.017c-.065.032-.133.068-.21.105a12.756,12.756,0,0,1-14.9-2.089c-.057-.054-.116-.108-.176-.167a.34.34,0,0,0-.177-.041.26.26,0,0,0-.125.031.354.354,0,0,0-.211.155c-1.806,1.376-10.1,6.993-17.491.1l-.108-.108a.428.428,0,0,0-.3-.116.41.41,0,0,0-.289.116l-.114.108c-7.384,6.892-15.688,1.274-17.492-.1a.347.347,0,0,0-.2-.155.294.294,0,0,0-.133-.031.342.342,0,0,0-.172.041c-.057.058-.118.113-.18.167a12.752,12.752,0,0,1-14.9,2.089l-.213-.105a.548.548,0,0,0-.08-.017.415.415,0,0,0-.417.414v2.9a.4.4,0,0,0,.12.292c7,6.091,13.636.388,15.171-1.121" transform="translate(-507.103 -342.943)" fill="#558085"/>
  </g>
</svg>
